<?xml version="1.0" encoding="UTF-8" standalone="no"?>
<!-- Created with Inkscape (http://www.inkscape.org/) -->

<svg
   width="40"
   height="40"
   viewBox="0 0 10.583333 10.583333"
   version="1.1"
   id="svg5"
   inkscape:version="1.2.2 (1:1.2.2+202212051552+b0a8486541)"
   sodipodi:docname="mouse-sprites.svg"
   xmlns:inkscape="http://www.inkscape.org/namespaces/inkscape"
   xmlns:sodipodi="http://sodipodi.sourceforge.net/DTD/sodipodi-0.dtd"
   xmlns:xlink="http://www.w3.org/1999/xlink"
   xmlns="http://www.w3.org/2000/svg"
   xmlns:svg="http://www.w3.org/2000/svg">
  <sodipodi:namedview
     id="namedview7"
     pagecolor="#ffffff"
     bordercolor="#666666"
     borderopacity="1.0"
     inkscape:showpageshadow="2"
     inkscape:pageopacity="0.0"
     inkscape:pagecheckerboard="0"
     inkscape:deskcolor="#d1d1d1"
     inkscape:document-units="px"
     showgrid="false"
     showguides="true"
     inkscape:zoom="11.313709"
     inkscape:cx="19.622213"
     inkscape:cy="21.787728"
     inkscape:window-width="1366"
     inkscape:window-height="740"
     inkscape:window-x="0"
     inkscape:window-y="28"
     inkscape:window-maximized="1"
     inkscape:current-layer="g5965">
    <inkscape:grid
       type="xygrid"
       id="grid182" />
    <sodipodi:guide
       position="35.719152,-12.926253"
       orientation="0,-1"
       id="guide958"
       inkscape:locked="false" />
    <sodipodi:guide
       position="5.2916665,9.789583"
       orientation="1,0"
       id="guide960"
       inkscape:locked="false" />
    <sodipodi:guide
       position="6.6145831,5.2916665"
       orientation="0,-1"
       id="guide4159"
       inkscape:locked="false" />
  </sodipodi:namedview>
  <defs
     id="defs2">
    <linearGradient
       inkscape:collect="always"
       id="linearGradient8547">
      <stop
         style="stop-color:#505050;stop-opacity:1;"
         offset="0"
         id="stop8543" />
      <stop
         style="stop-color:#505050;stop-opacity:0;"
         offset="1"
         id="stop8545" />
    </linearGradient>
    <linearGradient
       inkscape:collect="always"
       xlink:href="#linearGradient8547"
       id="linearGradient8549"
       x1="7.7106776"
       y1="5.104105"
       x2="9.4268408"
       y2="3.0498343"
       gradientUnits="userSpaceOnUse" />
    <linearGradient
       inkscape:collect="always"
       xlink:href="#linearGradient8547"
       id="linearGradient8585"
       gradientUnits="userSpaceOnUse"
       x1="7.7106776"
       y1="5.104105"
       x2="9.4268408"
       y2="3.0498343" />
    <linearGradient
       inkscape:collect="always"
       xlink:href="#linearGradient8547"
       id="linearGradient8655"
       gradientUnits="userSpaceOnUse"
       x1="7.7106776"
       y1="5.104105"
       x2="9.4268408"
       y2="3.0498343" />
    <linearGradient
       inkscape:collect="always"
       xlink:href="#linearGradient8547"
       id="linearGradient8657"
       gradientUnits="userSpaceOnUse"
       x1="7.7106776"
       y1="5.104105"
       x2="9.4268408"
       y2="3.0498343" />
  </defs>
  <g
     inkscape:label="Camada 1"
     inkscape:groupmode="layer"
     id="layer1">
    <g
       id="g9437"
       transform="rotate(-90,5.2916665,-4.6139527e-8)"
       inkscape:export-filename="sprites/mouse-2.png"
       inkscape:export-xdpi="96"
       inkscape:export-ydpi="96">
      <g
         id="g9435"
         transform="matrix(0,1,-0.99889356,0,5.2936909,-5.3539401)">
        <g
           id="g453"
           transform="translate(0.15835098,-0.04317701)">
          <g
             id="g9433"
             style="fill:#cfad93;fill-opacity:1"
             transform="translate(-0.17333311,0.05295841)">
            <g
               id="g5035"
               transform="translate(-0.35699799)">
              <g
                 id="g5165"
                 transform="matrix(1,0,0,0.9997019,-5.2916665,0.00157617)"
                 inkscape:export-filename="sprites/mouse-1.png"
                 inkscape:export-xdpi="96"
                 inkscape:export-ydpi="96">
                <g
                   id="g5163">
                  <g
                     id="g5971"
                     inkscape:export-filename="sprites/mouse-1.png"
                     inkscape:export-xdpi="96"
                     inkscape:export-ydpi="96">
                    <g
                       id="g5969"
                       transform="matrix(0.99998114,0,0,0.99940252,0.24686883,-5.5730446e-6)">
                      <g
                         id="g6254">
                        <g
                           id="g5965"
                           transform="matrix(1,0,0,0.97455968,-0.52916665,-2.3746605e-4)">
                          <g
                             id="g7185"
                             transform="translate(5.291766)"
                             inkscape:export-filename="sprites/mouse-2.png"
                             inkscape:export-xdpi="96"
                             inkscape:export-ydpi="96">
                            <rect
                               style="fill:#000000;fill-opacity:0;stroke:none;stroke-width:0.747539;stroke-linecap:round;stroke-linejoin:round;stroke-dasharray:none;stroke-opacity:1;paint-order:markers stroke fill"
                               id="rect7155"
                               width="5.2975283"
                               height="5.2916665"
                               x="-5.289773"
                               y="5.3689222"
                               ry="2.6458333"
                               transform="matrix(0,-1.0267179,1.0000189,0,0.63929789,2.4880174e-4)" />
                            <path
                               style="fill:#d99165;fill-opacity:1;stroke:none;stroke-width:0.26473px;stroke-linecap:butt;stroke-linejoin:miter;stroke-opacity:1"
                               d="M 10.362549,1.8185981 C 10.26749,1.2070616 10.171177,1.4793113 10.19867,1.7867068 c 0.0443,0.868999 -0.2536833,1.277103 -0.3193758,1.672917 -0.29482,1.776365 -1.0132947,1.3542748 -2.5430688,1.4156605 -0.1733749,-0.08888 -0.2447984,0.1744564 -0.00368,0.2980952 0.1744426,0.05299 0.3885074,0.095821 0.6236641,0.1101904 1.7264191,0.035982 2.018708,-0.2741133 2.2171095,-1.7334475 0.06168,-0.4537018 0.336779,-0.9879734 0.18923,-1.7315243 z"
                               id="path7157"
                               sodipodi:nodetypes="ccscccsc"
                               transform="matrix(1,0,0,1.0261044,0.5291667,2.4366573e-4)" />
                            <ellipse
                               style="opacity:1;fill:#3e3e3e;fill-opacity:1;stroke:none;stroke-width:0.934553;stroke-linecap:round;stroke-linejoin:round;paint-order:markers stroke fill"
                               id="ellipse7159"
                               cx="8.1071701"
                               cy="2.9885051"
                               rx="1.5114627"
                               ry="2.1690047" />
                            <path
                               id="path7161"
                               style="opacity:1;fill:#3e3e3e;fill-opacity:1;stroke-width:0.490977;stroke-linecap:round;stroke-linejoin:round;paint-order:markers stroke fill"
                               d="m 8.7784188,1.176329 c 0,0.6539517 -0.2492091,1.1840843 -0.6712487,1.1840843 -0.4220396,0 -0.7036936,-0.5301326 -0.7036936,-1.1840843 0,-0.6539517 0.4294836,-1.1894235 0.7036936,-1.18408428 C 8.352553,-0.00297736 8.7784188,0.5223773 8.7784188,1.176329 Z"
                               sodipodi:nodetypes="sssss" />
                            <g
                               id="g7167">
                              <path
                                 style="fill:#565656;fill-opacity:1;stroke:none;stroke-width:0.3394px;stroke-linecap:butt;stroke-linejoin:miter;stroke-opacity:1"
                                 d="m 8.7934881,0.52902293 c 0,0 0.1399701,0.0327534 0.2286854,-0.13704898 C 9.11089,0.22217133 9.3838835,0.02340877 9.5392562,-0.00623448 9.6946285,-0.03587781 9.9142208,0.15323515 9.963099,0.29863789 10.011976,0.44404061 10.007416,1.1353665 9.760931,1.2460099 9.5144467,1.3566533 9.1156412,1.3305463 8.9866406,1.2244887 8.8576407,1.1184313 8.3636833,0.80920409 8.4531806,0.72101165 8.5426772,0.63281929 8.7934881,0.52902285 8.7934881,0.52902293 Z"
                                 id="path7163"
                                 sodipodi:nodetypes="cssssssc" />
                              <path
                                 style="fill:#3e3e3e;fill-opacity:1;stroke:none;stroke-width:0.467278px;stroke-linecap:butt;stroke-linejoin:miter;stroke-opacity:1"
                                 d="m 8.4835542,0.68865869 c 1.2601934,-0.0833885 0.2367875,0.17854811 0.6746917,0.27532329 0,0 0.3861894,0.20511052 0.4811632,0.12485012 C 9.7343826,1.0085718 9.9575046,0.66492643 9.9066252,0.46921058 9.8557458,0.27349471 9.7211482,0.02287334 9.5661477,0.04334453 9.4111465,0.06381573 9.0361972,0.38823946 8.9806522,0.46794346 8.9251073,0.54764743 8.8013154,0.50401914 8.8013154,0.50401914 8.5924031,0.45444296 8.4835542,0.68865869 8.4835542,0.68865869 Z"
                                 id="path7165"
                                 sodipodi:nodetypes="ccsssscc" />
                            </g>
                            <path
                               style="fill:#565656;fill-opacity:1;stroke:none;stroke-width:0.287296px;stroke-linecap:butt;stroke-linejoin:miter;stroke-opacity:1"
                               d="M 7.9944698,0.00872294 C 7.9375714,0.0845564 7.8734541,0.2915356 7.831656,0.42972009 7.7887912,0.57143113 7.7280322,0.61954572 7.7280322,0.61954572 c 0,0 -0.069552,0.21272849 0.022499,0.33934884 C 7.8425822,1.0855149 8.0188527,1.0422145 8.2477818,1.009231 8.4767115,0.97624742 8.4870286,0.74162856 8.4660546,0.61230175 8.4509018,0.51886865 8.339499,0.46332459 8.3173087,0.38240785 8.2771421,0.23594064 8.3025829,0.10561729 8.2178364,0.01822416 8.2048944,0.004878 8.1157931,-0.02691924 7.9944698,0.00872294 Z"
                               id="path7169"
                               sodipodi:nodetypes="cscsssssc" />
                            <ellipse
                               style="opacity:1;fill:#505050;fill-opacity:1;stroke:none;stroke-width:1.34188;stroke-linecap:round;stroke-linejoin:round;paint-order:markers stroke fill"
                               id="ellipse7171"
                               cx="8.0872574"
                               cy="2.8742154"
                               rx="1.2997518"
                               ry="1.863242" />
                            <ellipse
                               style="opacity:1;fill:#626262;fill-opacity:1;stroke:none;stroke-width:0.809769;stroke-linecap:round;stroke-linejoin:round;paint-order:markers stroke fill"
                               id="ellipse7173"
                               cx="8.066349"
                               cy="2.4839001"
                               rx="0.78434575"
                               ry="1.1243886" />
                            <ellipse
                               style="opacity:1;fill:#696969;fill-opacity:1;stroke:none;stroke-width:3.22946;stroke-linecap:round;stroke-linejoin:round;paint-order:markers stroke fill"
                               id="ellipse7175"
                               cx="8.1014338"
                               cy="0.51484871"
                               rx="0.25884697"
                               ry="0.52418292" />
                            <ellipse
                               style="opacity:1;fill:#8f8f8f;fill-opacity:1;stroke:none;stroke-width:1.27808;stroke-linecap:round;stroke-linejoin:round;paint-order:markers stroke fill"
                               id="ellipse7177"
                               cx="8.1014338"
                               cy="0.25562114"
                               rx="0.080206424"
                               ry="0.26495537" />
                            <g
                               id="g7183"
                               transform="matrix(-1,0,0,1,16.21434,0)">
                              <path
                                 style="fill:#565656;fill-opacity:1;stroke:none;stroke-width:0.3394px;stroke-linecap:butt;stroke-linejoin:miter;stroke-opacity:1"
                                 d="m 8.7934881,0.52902293 c 0,0 0.1399701,0.0327534 0.2286854,-0.13704898 C 9.11089,0.22217133 9.3838835,0.02340877 9.5392562,-0.00623448 9.6946285,-0.03587781 9.9142208,0.15323515 9.963099,0.29863789 10.011976,0.44404061 10.007416,1.1353665 9.760931,1.2460099 9.5144467,1.3566533 9.1156412,1.3305463 8.9866406,1.2244887 8.8576407,1.1184313 8.3636833,0.80920409 8.4531806,0.72101165 8.5426772,0.63281929 8.7934881,0.52902285 8.7934881,0.52902293 Z"
                                 id="path7179"
                                 sodipodi:nodetypes="cssssssc" />
                              <path
                                 style="fill:#3e3e3e;fill-opacity:1;stroke:none;stroke-width:0.467278px;stroke-linecap:butt;stroke-linejoin:miter;stroke-opacity:1"
                                 d="m 8.4835542,0.68865869 c 1.2601934,-0.0833885 0.2367875,0.17854811 0.6746917,0.27532329 0,0 0.3861894,0.20511052 0.4811632,0.12485012 C 9.7343826,1.0085718 9.9575046,0.66492643 9.9066252,0.46921058 9.8557458,0.27349471 9.7211482,0.02287334 9.5661477,0.04334453 9.4111465,0.06381573 9.0361972,0.38823946 8.9806522,0.46794346 8.9251073,0.54764743 8.8013154,0.50401914 8.8013154,0.50401914 8.5924031,0.45444296 8.4835542,0.68865869 8.4835542,0.68865869 Z"
                                 id="path7181"
                                 sodipodi:nodetypes="ccsssscc" />
                            </g>
                            <path
                               style="fill:url(#linearGradient8549);fill-opacity:1;stroke:none;stroke-width:0.26473px;stroke-linecap:butt;stroke-linejoin:miter;stroke-opacity:1"
                               d="M 10.362549,1.8185981 C 10.26749,1.2070616 10.171177,1.4793113 10.19867,1.7867068 c 0.0443,0.868999 -0.2536833,1.277103 -0.3193758,1.672917 -0.29482,1.776365 -1.0132947,1.3542748 -2.5430688,1.4156605 -0.1733749,-0.08888 -0.2447984,0.1744564 -0.00368,0.2980952 0.1744426,0.05299 0.3885074,0.095821 0.6236641,0.1101904 1.7264191,0.035982 2.018708,-0.2741133 2.2171095,-1.7334475 0.06168,-0.4537018 0.336779,-0.9879734 0.18923,-1.7315243 z"
                               id="path8472"
                               sodipodi:nodetypes="ccscccsc"
                               transform="matrix(1,0,0,1.0261044,0.5291667,2.4366573e-4)" />
                          </g>
                          <g
                             id="g8583"
                             inkscape:export-filename="sprites/mouse-1.png"
                             inkscape:export-xdpi="96"
                             inkscape:export-ydpi="96"
                             transform="matrix(1,0,0,-1,0,5.4220192)">
                            <rect
                               style="fill:#000000;fill-opacity:0;stroke:none;stroke-width:0.747539;stroke-linecap:round;stroke-linejoin:round;stroke-dasharray:none;stroke-opacity:1;paint-order:markers stroke fill"
                               id="rect8551"
                               width="5.2975283"
                               height="5.2916665"
                               x="-5.289773"
                               y="5.3689222"
                               ry="2.6458333"
                               transform="matrix(0,-1.0267179,1.0000189,0,0.63929789,2.4880174e-4)" />
                            <path
                               style="fill:#d99165;fill-opacity:1;stroke:none;stroke-width:0.26473px;stroke-linecap:butt;stroke-linejoin:miter;stroke-opacity:1"
                               d="M 10.362549,1.8185981 C 10.26749,1.2070616 10.171177,1.4793113 10.19867,1.7867068 c 0.0443,0.868999 -0.2536833,1.277103 -0.3193758,1.672917 -0.29482,1.776365 -1.0132947,1.3542748 -2.5430688,1.4156605 -0.1733749,-0.08888 -0.2447984,0.1744564 -0.00368,0.2980952 0.1744426,0.05299 0.3885074,0.095821 0.6236641,0.1101904 1.7264191,0.035982 2.018708,-0.2741133 2.2171095,-1.7334475 0.06168,-0.4537018 0.336779,-0.9879734 0.18923,-1.7315243 z"
                               id="path8553"
                               sodipodi:nodetypes="ccscccsc"
                               transform="matrix(1,0,0,1.0261044,0.5291667,2.4366573e-4)" />
                            <ellipse
                               style="opacity:1;fill:#3e3e3e;fill-opacity:1;stroke:none;stroke-width:0.934553;stroke-linecap:round;stroke-linejoin:round;paint-order:markers stroke fill"
                               id="ellipse8555"
                               cx="8.1071701"
                               cy="2.9885051"
                               rx="1.5114627"
                               ry="2.1690047" />
                            <path
                               id="path8557"
                               style="opacity:1;fill:#3e3e3e;fill-opacity:1;stroke-width:0.490977;stroke-linecap:round;stroke-linejoin:round;paint-order:markers stroke fill"
                               d="m 8.7784188,1.176329 c 0,0.6539517 -0.2492091,1.1840843 -0.6712487,1.1840843 -0.4220396,0 -0.7036936,-0.5301326 -0.7036936,-1.1840843 0,-0.6539517 0.4294836,-1.1894235 0.7036936,-1.18408428 C 8.352553,-0.00297736 8.7784188,0.5223773 8.7784188,1.176329 Z"
                               sodipodi:nodetypes="sssss" />
                            <g
                               id="g8563">
                              <path
                                 style="fill:#565656;fill-opacity:1;stroke:none;stroke-width:0.3394px;stroke-linecap:butt;stroke-linejoin:miter;stroke-opacity:1"
                                 d="m 8.7934881,0.52902293 c 0,0 0.1399701,0.0327534 0.2286854,-0.13704898 C 9.11089,0.22217133 9.3838835,0.02340877 9.5392562,-0.00623448 9.6946285,-0.03587781 9.9142208,0.15323515 9.963099,0.29863789 10.011976,0.44404061 10.007416,1.1353665 9.760931,1.2460099 9.5144467,1.3566533 9.1156412,1.3305463 8.9866406,1.2244887 8.8576407,1.1184313 8.3636833,0.80920409 8.4531806,0.72101165 8.5426772,0.63281929 8.7934881,0.52902285 8.7934881,0.52902293 Z"
                                 id="path8559"
                                 sodipodi:nodetypes="cssssssc" />
                              <path
                                 style="fill:#3e3e3e;fill-opacity:1;stroke:none;stroke-width:0.467278px;stroke-linecap:butt;stroke-linejoin:miter;stroke-opacity:1"
                                 d="m 8.4835542,0.68865869 c 1.2601934,-0.0833885 0.2367875,0.17854811 0.6746917,0.27532329 0,0 0.3861894,0.20511052 0.4811632,0.12485012 C 9.7343826,1.0085718 9.9575046,0.66492643 9.9066252,0.46921058 9.8557458,0.27349471 9.7211482,0.02287334 9.5661477,0.04334453 9.4111465,0.06381573 9.0361972,0.38823946 8.9806522,0.46794346 8.9251073,0.54764743 8.8013154,0.50401914 8.8013154,0.50401914 8.5924031,0.45444296 8.4835542,0.68865869 8.4835542,0.68865869 Z"
                                 id="path8561"
                                 sodipodi:nodetypes="ccsssscc" />
                            </g>
                            <path
                               style="fill:#565656;fill-opacity:1;stroke:none;stroke-width:0.287296px;stroke-linecap:butt;stroke-linejoin:miter;stroke-opacity:1"
                               d="M 7.9944698,0.00872294 C 7.9375714,0.0845564 7.8734541,0.2915356 7.831656,0.42972009 7.7887912,0.57143113 7.7280322,0.61954572 7.7280322,0.61954572 c 0,0 -0.069552,0.21272849 0.022499,0.33934884 C 7.8425822,1.0855149 8.0188527,1.0422145 8.2477818,1.009231 8.4767115,0.97624742 8.4870286,0.74162856 8.4660546,0.61230175 8.4509018,0.51886865 8.339499,0.46332459 8.3173087,0.38240785 8.2771421,0.23594064 8.3025829,0.10561729 8.2178364,0.01822416 8.2048944,0.004878 8.1157931,-0.02691924 7.9944698,0.00872294 Z"
                               id="path8565"
                               sodipodi:nodetypes="cscsssssc" />
                            <ellipse
                               style="opacity:1;fill:#505050;fill-opacity:1;stroke:none;stroke-width:1.34188;stroke-linecap:round;stroke-linejoin:round;paint-order:markers stroke fill"
                               id="ellipse8567"
                               cx="8.0872574"
                               cy="2.8742154"
                               rx="1.2997518"
                               ry="1.863242" />
                            <ellipse
                               style="opacity:1;fill:#626262;fill-opacity:1;stroke:none;stroke-width:0.809769;stroke-linecap:round;stroke-linejoin:round;paint-order:markers stroke fill"
                               id="ellipse8569"
                               cx="8.066349"
                               cy="2.4839001"
                               rx="0.78434575"
                               ry="1.1243886" />
                            <ellipse
                               style="opacity:1;fill:#696969;fill-opacity:1;stroke:none;stroke-width:3.22946;stroke-linecap:round;stroke-linejoin:round;paint-order:markers stroke fill"
                               id="ellipse8571"
                               cx="8.1014338"
                               cy="0.51484871"
                               rx="0.25884697"
                               ry="0.52418292" />
                            <ellipse
                               style="opacity:1;fill:#8f8f8f;fill-opacity:1;stroke:none;stroke-width:1.27808;stroke-linecap:round;stroke-linejoin:round;paint-order:markers stroke fill"
                               id="ellipse8573"
                               cx="8.1014338"
                               cy="0.25562114"
                               rx="0.080206424"
                               ry="0.26495537" />
                            <g
                               id="g8579"
                               transform="matrix(-1,0,0,1,16.21434,0)">
                              <path
                                 style="fill:#565656;fill-opacity:1;stroke:none;stroke-width:0.3394px;stroke-linecap:butt;stroke-linejoin:miter;stroke-opacity:1"
                                 d="m 8.7934881,0.52902293 c 0,0 0.1399701,0.0327534 0.2286854,-0.13704898 C 9.11089,0.22217133 9.3838835,0.02340877 9.5392562,-0.00623448 9.6946285,-0.03587781 9.9142208,0.15323515 9.963099,0.29863789 10.011976,0.44404061 10.007416,1.1353665 9.760931,1.2460099 9.5144467,1.3566533 9.1156412,1.3305463 8.9866406,1.2244887 8.8576407,1.1184313 8.3636833,0.80920409 8.4531806,0.72101165 8.5426772,0.63281929 8.7934881,0.52902285 8.7934881,0.52902293 Z"
                                 id="path8575"
                                 sodipodi:nodetypes="cssssssc" />
                              <path
                                 style="fill:#3e3e3e;fill-opacity:1;stroke:none;stroke-width:0.467278px;stroke-linecap:butt;stroke-linejoin:miter;stroke-opacity:1"
                                 d="m 8.4835542,0.68865869 c 1.2601934,-0.0833885 0.2367875,0.17854811 0.6746917,0.27532329 0,0 0.3861894,0.20511052 0.4811632,0.12485012 C 9.7343826,1.0085718 9.9575046,0.66492643 9.9066252,0.46921058 9.8557458,0.27349471 9.7211482,0.02287334 9.5661477,0.04334453 9.4111465,0.06381573 9.0361972,0.38823946 8.9806522,0.46794346 8.9251073,0.54764743 8.8013154,0.50401914 8.8013154,0.50401914 8.5924031,0.45444296 8.4835542,0.68865869 8.4835542,0.68865869 Z"
                                 id="path8577"
                                 sodipodi:nodetypes="ccsssscc" />
                            </g>
                            <path
                               style="fill:url(#linearGradient8585);fill-opacity:1;stroke:none;stroke-width:0.26473px;stroke-linecap:butt;stroke-linejoin:miter;stroke-opacity:1"
                               d="M 10.362549,1.8185981 C 10.26749,1.2070616 10.171177,1.4793113 10.19867,1.7867068 c 0.0443,0.868999 -0.2536833,1.277103 -0.3193758,1.672917 -0.29482,1.776365 -1.0132947,1.3542748 -2.5430688,1.4156605 -0.1733749,-0.08888 -0.2447984,0.1744564 -0.00368,0.2980952 0.1744426,0.05299 0.3885074,0.095821 0.6236641,0.1101904 1.7264191,0.035982 2.018708,-0.2741133 2.2171095,-1.7334475 0.06168,-0.4537018 0.336779,-0.9879734 0.18923,-1.7315243 z"
                               id="path8581"
                               sodipodi:nodetypes="ccscccsc"
                               transform="matrix(1,0,0,1.0261044,0.5291667,2.4366573e-4)" />
                          </g>
                          <g
                             id="g8619"
                             transform="matrix(0,1.0281422,0.97262807,0,11.309167,-0.74605544)"
                             inkscape:export-filename="sprites/mouse-4.png"
                             inkscape:export-xdpi="96"
                             inkscape:export-ydpi="96">
                            <rect
                               style="fill:#000000;fill-opacity:0;stroke:none;stroke-width:0.747539;stroke-linecap:round;stroke-linejoin:round;stroke-dasharray:none;stroke-opacity:1;paint-order:markers stroke fill"
                               id="rect8587"
                               width="5.2975283"
                               height="5.2916665"
                               x="-5.289773"
                               y="5.3689222"
                               ry="2.6458333"
                               transform="matrix(0,-1.0267179,1.0000189,0,0.63929789,2.4880174e-4)" />
                            <path
                               style="fill:#d99165;fill-opacity:1;stroke:none;stroke-width:0.26473px;stroke-linecap:butt;stroke-linejoin:miter;stroke-opacity:1"
                               d="M 10.362549,1.8185981 C 10.26749,1.2070616 10.171177,1.4793113 10.19867,1.7867068 c 0.0443,0.868999 -0.2536833,1.277103 -0.3193758,1.672917 -0.29482,1.776365 -1.0132947,1.3542748 -2.5430688,1.4156605 -0.1733749,-0.08888 -0.2447984,0.1744564 -0.00368,0.2980952 0.1744426,0.05299 0.3885074,0.095821 0.6236641,0.1101904 1.7264191,0.035982 2.018708,-0.2741133 2.2171095,-1.7334475 0.06168,-0.4537018 0.336779,-0.9879734 0.18923,-1.7315243 z"
                               id="path8589"
                               sodipodi:nodetypes="ccscccsc"
                               transform="matrix(1,0,0,1.0261044,0.5291667,2.4366573e-4)" />
                            <ellipse
                               style="opacity:1;fill:#3e3e3e;fill-opacity:1;stroke:none;stroke-width:0.934553;stroke-linecap:round;stroke-linejoin:round;paint-order:markers stroke fill"
                               id="ellipse8591"
                               cx="8.1071701"
                               cy="2.9885051"
                               rx="1.5114627"
                               ry="2.1690047" />
                            <path
                               id="path8593"
                               style="opacity:1;fill:#3e3e3e;fill-opacity:1;stroke-width:0.490977;stroke-linecap:round;stroke-linejoin:round;paint-order:markers stroke fill"
                               d="m 8.7784188,1.176329 c 0,0.6539517 -0.2492091,1.1840843 -0.6712487,1.1840843 -0.4220396,0 -0.7036936,-0.5301326 -0.7036936,-1.1840843 0,-0.6539517 0.4294836,-1.1894235 0.7036936,-1.18408428 C 8.352553,-0.00297736 8.7784188,0.5223773 8.7784188,1.176329 Z"
                               sodipodi:nodetypes="sssss" />
                            <g
                               id="g8599">
                              <path
                                 style="fill:#565656;fill-opacity:1;stroke:none;stroke-width:0.3394px;stroke-linecap:butt;stroke-linejoin:miter;stroke-opacity:1"
                                 d="m 8.7934881,0.52902293 c 0,0 0.1399701,0.0327534 0.2286854,-0.13704898 C 9.11089,0.22217133 9.3838835,0.02340877 9.5392562,-0.00623448 9.6946285,-0.03587781 9.9142208,0.15323515 9.963099,0.29863789 10.011976,0.44404061 10.007416,1.1353665 9.760931,1.2460099 9.5144467,1.3566533 9.1156412,1.3305463 8.9866406,1.2244887 8.8576407,1.1184313 8.3636833,0.80920409 8.4531806,0.72101165 8.5426772,0.63281929 8.7934881,0.52902285 8.7934881,0.52902293 Z"
                                 id="path8595"
                                 sodipodi:nodetypes="cssssssc" />
                              <path
                                 style="fill:#3e3e3e;fill-opacity:1;stroke:none;stroke-width:0.467278px;stroke-linecap:butt;stroke-linejoin:miter;stroke-opacity:1"
                                 d="m 8.4835542,0.68865869 c 1.2601934,-0.0833885 0.2367875,0.17854811 0.6746917,0.27532329 0,0 0.3861894,0.20511052 0.4811632,0.12485012 C 9.7343826,1.0085718 9.9575046,0.66492643 9.9066252,0.46921058 9.8557458,0.27349471 9.7211482,0.02287334 9.5661477,0.04334453 9.4111465,0.06381573 9.0361972,0.38823946 8.9806522,0.46794346 8.9251073,0.54764743 8.8013154,0.50401914 8.8013154,0.50401914 8.5924031,0.45444296 8.4835542,0.68865869 8.4835542,0.68865869 Z"
                                 id="path8597"
                                 sodipodi:nodetypes="ccsssscc" />
                            </g>
                            <path
                               style="fill:#565656;fill-opacity:1;stroke:none;stroke-width:0.287296px;stroke-linecap:butt;stroke-linejoin:miter;stroke-opacity:1"
                               d="M 7.9944698,0.00872294 C 7.9375714,0.0845564 7.8734541,0.2915356 7.831656,0.42972009 7.7887912,0.57143113 7.7280322,0.61954572 7.7280322,0.61954572 c 0,0 -0.069552,0.21272849 0.022499,0.33934884 C 7.8425822,1.0855149 8.0188527,1.0422145 8.2477818,1.009231 8.4767115,0.97624742 8.4870286,0.74162856 8.4660546,0.61230175 8.4509018,0.51886865 8.339499,0.46332459 8.3173087,0.38240785 8.2771421,0.23594064 8.3025829,0.10561729 8.2178364,0.01822416 8.2048944,0.004878 8.1157931,-0.02691924 7.9944698,0.00872294 Z"
                               id="path8601"
                               sodipodi:nodetypes="cscsssssc" />
                            <ellipse
                               style="opacity:1;fill:#505050;fill-opacity:1;stroke:none;stroke-width:1.34188;stroke-linecap:round;stroke-linejoin:round;paint-order:markers stroke fill"
                               id="ellipse8603"
                               cx="8.0872574"
                               cy="2.8742154"
                               rx="1.2997518"
                               ry="1.863242" />
                            <ellipse
                               style="opacity:1;fill:#626262;fill-opacity:1;stroke:none;stroke-width:0.809769;stroke-linecap:round;stroke-linejoin:round;paint-order:markers stroke fill"
                               id="ellipse8605"
                               cx="8.066349"
                               cy="2.4839001"
                               rx="0.78434575"
                               ry="1.1243886" />
                            <ellipse
                               style="opacity:1;fill:#696969;fill-opacity:1;stroke:none;stroke-width:3.22946;stroke-linecap:round;stroke-linejoin:round;paint-order:markers stroke fill"
                               id="ellipse8607"
                               cx="8.1014338"
                               cy="0.51484871"
                               rx="0.25884697"
                               ry="0.52418292" />
                            <ellipse
                               style="opacity:1;fill:#8f8f8f;fill-opacity:1;stroke:none;stroke-width:1.27808;stroke-linecap:round;stroke-linejoin:round;paint-order:markers stroke fill"
                               id="ellipse8609"
                               cx="8.1014338"
                               cy="0.25562114"
                               rx="0.080206424"
                               ry="0.26495537" />
                            <g
                               id="g8615"
                               transform="matrix(-1,0,0,1,16.21434,0)">
                              <path
                                 style="fill:#565656;fill-opacity:1;stroke:none;stroke-width:0.3394px;stroke-linecap:butt;stroke-linejoin:miter;stroke-opacity:1"
                                 d="m 8.7934881,0.52902293 c 0,0 0.1399701,0.0327534 0.2286854,-0.13704898 C 9.11089,0.22217133 9.3838835,0.02340877 9.5392562,-0.00623448 9.6946285,-0.03587781 9.9142208,0.15323515 9.963099,0.29863789 10.011976,0.44404061 10.007416,1.1353665 9.760931,1.2460099 9.5144467,1.3566533 9.1156412,1.3305463 8.9866406,1.2244887 8.8576407,1.1184313 8.3636833,0.80920409 8.4531806,0.72101165 8.5426772,0.63281929 8.7934881,0.52902285 8.7934881,0.52902293 Z"
                                 id="path8611"
                                 sodipodi:nodetypes="cssssssc" />
                              <path
                                 style="fill:#3e3e3e;fill-opacity:1;stroke:none;stroke-width:0.467278px;stroke-linecap:butt;stroke-linejoin:miter;stroke-opacity:1"
                                 d="m 8.4835542,0.68865869 c 1.2601934,-0.0833885 0.2367875,0.17854811 0.6746917,0.27532329 0,0 0.3861894,0.20511052 0.4811632,0.12485012 C 9.7343826,1.0085718 9.9575046,0.66492643 9.9066252,0.46921058 9.8557458,0.27349471 9.7211482,0.02287334 9.5661477,0.04334453 9.4111465,0.06381573 9.0361972,0.38823946 8.9806522,0.46794346 8.9251073,0.54764743 8.8013154,0.50401914 8.8013154,0.50401914 8.5924031,0.45444296 8.4835542,0.68865869 8.4835542,0.68865869 Z"
                                 id="path8613"
                                 sodipodi:nodetypes="ccsssscc" />
                            </g>
                            <path
                               style="fill:url(#linearGradient8657);fill-opacity:1;stroke:none;stroke-width:0.26473px;stroke-linecap:butt;stroke-linejoin:miter;stroke-opacity:1"
                               d="M 10.362549,1.8185981 C 10.26749,1.2070616 10.171177,1.4793113 10.19867,1.7867068 c 0.0443,0.868999 -0.2536833,1.277103 -0.3193758,1.672917 -0.29482,1.776365 -1.0132947,1.3542748 -2.5430688,1.4156605 -0.1733749,-0.08888 -0.2447984,0.1744564 -0.00368,0.2980952 0.1744426,0.05299 0.3885074,0.095821 0.6236641,0.1101904 1.7264191,0.035982 2.018708,-0.2741133 2.2171095,-1.7334475 0.06168,-0.4537018 0.336779,-0.9879734 0.18923,-1.7315243 z"
                               id="path8617"
                               sodipodi:nodetypes="ccscccsc"
                               transform="matrix(1,0,0,1.0261044,0.5291667,2.4366573e-4)" />
                          </g>
                          <g
                             id="g8653"
                             inkscape:export-filename="sprites/mouse-3.png"
                             inkscape:export-xdpi="96"
                             inkscape:export-ydpi="96"
                             transform="matrix(0,1.0281422,-0.97262807,0,11.291009,-0.74605551)">
                            <rect
                               style="fill:#000000;fill-opacity:0;stroke:none;stroke-width:0.747539;stroke-linecap:round;stroke-linejoin:round;stroke-dasharray:none;stroke-opacity:1;paint-order:markers stroke fill"
                               id="rect8621"
                               width="5.2975283"
                               height="5.2916665"
                               x="-5.289773"
                               y="5.3689222"
                               ry="2.6458333"
                               transform="matrix(0,-1.0267179,1.0000189,0,0.63929789,2.4880174e-4)" />
                            <path
                               style="fill:#d99165;fill-opacity:1;stroke:none;stroke-width:0.26473px;stroke-linecap:butt;stroke-linejoin:miter;stroke-opacity:1"
                               d="M 10.362549,1.8185981 C 10.26749,1.2070616 10.171177,1.4793113 10.19867,1.7867068 c 0.0443,0.868999 -0.2536833,1.277103 -0.3193758,1.672917 -0.29482,1.776365 -1.0132947,1.3542748 -2.5430688,1.4156605 -0.1733749,-0.08888 -0.2447984,0.1744564 -0.00368,0.2980952 0.1744426,0.05299 0.3885074,0.095821 0.6236641,0.1101904 1.7264191,0.035982 2.018708,-0.2741133 2.2171095,-1.7334475 0.06168,-0.4537018 0.336779,-0.9879734 0.18923,-1.7315243 z"
                               id="path8623"
                               sodipodi:nodetypes="ccscccsc"
                               transform="matrix(1,0,0,1.0261044,0.5291667,2.4366573e-4)" />
                            <ellipse
                               style="opacity:1;fill:#3e3e3e;fill-opacity:1;stroke:none;stroke-width:0.934553;stroke-linecap:round;stroke-linejoin:round;paint-order:markers stroke fill"
                               id="ellipse8625"
                               cx="8.1071701"
                               cy="2.9885051"
                               rx="1.5114627"
                               ry="2.1690047" />
                            <path
                               id="path8627"
                               style="opacity:1;fill:#3e3e3e;fill-opacity:1;stroke-width:0.490977;stroke-linecap:round;stroke-linejoin:round;paint-order:markers stroke fill"
                               d="m 8.7784188,1.176329 c 0,0.6539517 -0.2492091,1.1840843 -0.6712487,1.1840843 -0.4220396,0 -0.7036936,-0.5301326 -0.7036936,-1.1840843 0,-0.6539517 0.4294836,-1.1894235 0.7036936,-1.18408428 C 8.352553,-0.00297736 8.7784188,0.5223773 8.7784188,1.176329 Z"
                               sodipodi:nodetypes="sssss" />
                            <g
                               id="g8633">
                              <path
                                 style="fill:#565656;fill-opacity:1;stroke:none;stroke-width:0.3394px;stroke-linecap:butt;stroke-linejoin:miter;stroke-opacity:1"
                                 d="m 8.7934881,0.52902293 c 0,0 0.1399701,0.0327534 0.2286854,-0.13704898 C 9.11089,0.22217133 9.3838835,0.02340877 9.5392562,-0.00623448 9.6946285,-0.03587781 9.9142208,0.15323515 9.963099,0.29863789 10.011976,0.44404061 10.007416,1.1353665 9.760931,1.2460099 9.5144467,1.3566533 9.1156412,1.3305463 8.9866406,1.2244887 8.8576407,1.1184313 8.3636833,0.80920409 8.4531806,0.72101165 8.5426772,0.63281929 8.7934881,0.52902285 8.7934881,0.52902293 Z"
                                 id="path8629"
                                 sodipodi:nodetypes="cssssssc" />
                              <path
                                 style="fill:#3e3e3e;fill-opacity:1;stroke:none;stroke-width:0.467278px;stroke-linecap:butt;stroke-linejoin:miter;stroke-opacity:1"
                                 d="m 8.4835542,0.68865869 c 1.2601934,-0.0833885 0.2367875,0.17854811 0.6746917,0.27532329 0,0 0.3861894,0.20511052 0.4811632,0.12485012 C 9.7343826,1.0085718 9.9575046,0.66492643 9.9066252,0.46921058 9.8557458,0.27349471 9.7211482,0.02287334 9.5661477,0.04334453 9.4111465,0.06381573 9.0361972,0.38823946 8.9806522,0.46794346 8.9251073,0.54764743 8.8013154,0.50401914 8.8013154,0.50401914 8.5924031,0.45444296 8.4835542,0.68865869 8.4835542,0.68865869 Z"
                                 id="path8631"
                                 sodipodi:nodetypes="ccsssscc" />
                            </g>
                            <path
                               style="fill:#565656;fill-opacity:1;stroke:none;stroke-width:0.287296px;stroke-linecap:butt;stroke-linejoin:miter;stroke-opacity:1"
                               d="M 7.9944698,0.00872294 C 7.9375714,0.0845564 7.8734541,0.2915356 7.831656,0.42972009 7.7887912,0.57143113 7.7280322,0.61954572 7.7280322,0.61954572 c 0,0 -0.069552,0.21272849 0.022499,0.33934884 C 7.8425822,1.0855149 8.0188527,1.0422145 8.2477818,1.009231 8.4767115,0.97624742 8.4870286,0.74162856 8.4660546,0.61230175 8.4509018,0.51886865 8.339499,0.46332459 8.3173087,0.38240785 8.2771421,0.23594064 8.3025829,0.10561729 8.2178364,0.01822416 8.2048944,0.004878 8.1157931,-0.02691924 7.9944698,0.00872294 Z"
                               id="path8635"
                               sodipodi:nodetypes="cscsssssc" />
                            <ellipse
                               style="opacity:1;fill:#505050;fill-opacity:1;stroke:none;stroke-width:1.34188;stroke-linecap:round;stroke-linejoin:round;paint-order:markers stroke fill"
                               id="ellipse8637"
                               cx="8.0872574"
                               cy="2.8742154"
                               rx="1.2997518"
                               ry="1.863242" />
                            <ellipse
                               style="opacity:1;fill:#626262;fill-opacity:1;stroke:none;stroke-width:0.809769;stroke-linecap:round;stroke-linejoin:round;paint-order:markers stroke fill"
                               id="ellipse8639"
                               cx="8.066349"
                               cy="2.4839001"
                               rx="0.78434575"
                               ry="1.1243886" />
                            <ellipse
                               style="opacity:1;fill:#696969;fill-opacity:1;stroke:none;stroke-width:3.22946;stroke-linecap:round;stroke-linejoin:round;paint-order:markers stroke fill"
                               id="ellipse8641"
                               cx="8.1014338"
                               cy="0.51484871"
                               rx="0.25884697"
                               ry="0.52418292" />
                            <ellipse
                               style="opacity:1;fill:#8f8f8f;fill-opacity:1;stroke:none;stroke-width:1.27808;stroke-linecap:round;stroke-linejoin:round;paint-order:markers stroke fill"
                               id="ellipse8643"
                               cx="8.1014338"
                               cy="0.25562114"
                               rx="0.080206424"
                               ry="0.26495537" />
                            <g
                               id="g8649"
                               transform="matrix(-1,0,0,1,16.21434,0)">
                              <path
                                 style="fill:#565656;fill-opacity:1;stroke:none;stroke-width:0.3394px;stroke-linecap:butt;stroke-linejoin:miter;stroke-opacity:1"
                                 d="m 8.7934881,0.52902293 c 0,0 0.1399701,0.0327534 0.2286854,-0.13704898 C 9.11089,0.22217133 9.3838835,0.02340877 9.5392562,-0.00623448 9.6946285,-0.03587781 9.9142208,0.15323515 9.963099,0.29863789 10.011976,0.44404061 10.007416,1.1353665 9.760931,1.2460099 9.5144467,1.3566533 9.1156412,1.3305463 8.9866406,1.2244887 8.8576407,1.1184313 8.3636833,0.80920409 8.4531806,0.72101165 8.5426772,0.63281929 8.7934881,0.52902285 8.7934881,0.52902293 Z"
                                 id="path8645"
                                 sodipodi:nodetypes="cssssssc" />
                              <path
                                 style="fill:#3e3e3e;fill-opacity:1;stroke:none;stroke-width:0.467278px;stroke-linecap:butt;stroke-linejoin:miter;stroke-opacity:1"
                                 d="m 8.4835542,0.68865869 c 1.2601934,-0.0833885 0.2367875,0.17854811 0.6746917,0.27532329 0,0 0.3861894,0.20511052 0.4811632,0.12485012 C 9.7343826,1.0085718 9.9575046,0.66492643 9.9066252,0.46921058 9.8557458,0.27349471 9.7211482,0.02287334 9.5661477,0.04334453 9.4111465,0.06381573 9.0361972,0.38823946 8.9806522,0.46794346 8.9251073,0.54764743 8.8013154,0.50401914 8.8013154,0.50401914 8.5924031,0.45444296 8.4835542,0.68865869 8.4835542,0.68865869 Z"
                                 id="path8647"
                                 sodipodi:nodetypes="ccsssscc" />
                            </g>
                            <path
                               style="fill:url(#linearGradient8655);fill-opacity:1;stroke:none;stroke-width:0.26473px;stroke-linecap:butt;stroke-linejoin:miter;stroke-opacity:1"
                               d="M 10.362549,1.8185981 C 10.26749,1.2070616 10.171177,1.4793113 10.19867,1.7867068 c 0.0443,0.868999 -0.2536833,1.277103 -0.3193758,1.672917 -0.29482,1.776365 -1.0132947,1.3542748 -2.5430688,1.4156605 -0.1733749,-0.08888 -0.2447984,0.1744564 -0.00368,0.2980952 0.1744426,0.05299 0.3885074,0.095821 0.6236641,0.1101904 1.7264191,0.035982 2.018708,-0.2741133 2.2171095,-1.7334475 0.06168,-0.4537018 0.336779,-0.9879734 0.18923,-1.7315243 z"
                               id="path8651"
                               sodipodi:nodetypes="ccscccsc"
                               transform="matrix(1,0,0,1.0261044,0.5291667,2.4366573e-4)" />
                          </g>
                        </g>
                      </g>
                    </g>
                  </g>
                  <g
                     id="g6288"
                     inkscape:export-filename="sprites/mouse-2.png"
                     inkscape:export-xdpi="96"
                     inkscape:export-ydpi="96"
                     transform="matrix(0,1.0014062,-0.99859579,0,16.299932,-5.7433066)">
                    <g
                       id="g6286"
                       transform="matrix(0.99998114,0,0,0.99940252,0.24686883,-5.5730446e-6)">
                      <g
                         id="g6284" />
                    </g>
                  </g>
                </g>
              </g>
            </g>
          </g>
        </g>
      </g>
    </g>
  </g>
</svg>
